# xmcd
#
# Track frame offsets: 
#        150
#        11805
#        24647
#        44625
#        61415
#        86345
#        105200
#        123730
#        143507
#        163510
#        180457
#        199317
#        224430
#        243772
#        267465
#        289377
#
# Disc length: 4217 seconds
#
# Revision: 4
# Processed by: cddbd v1.5.1PL0 Copyright (c) Steve Scherf et al.
# Submitted via: ExactAudioCopy v0.95a5
#
DISCID=e8107710
DTITLE=Various Artist - Evidence Blues Sampler- Too
DYEAR=1993
DGENRE=Blues
TTITLE0=Johnnie Johnson - Johnnie's Boogie
TTITLE1=Robert "Jr" Lockwood - Rambling On My Mind
TTITLE2=Lowell Fulson - Worried About the Blues
TTITLE3=Andrew "Big Voice" Odom - You Say That You Love Me Honey
TTITLE4=Larry Davis - Giving Up On Love
TTITLE5=Clarence "Gatemouth" Brown - Choo Choo Ch' Boogie
TTITLE6=Carrie Smith - Trouble In Mind
TTITLE7=Little Milton - The Blues Is Alright
TTITLE8=Eddie Burns Blues Band - Orange Driver
TTITLE9=Eddie Shaw - My Baby and Me
TTITLE10=Melvin Taylor - Talking To Anna Mae Part I
TTITLE11=Mighty Joe Young - Takes Money
TTITLE12=Fenton Robinson - Special Road
TTITLE13=Eddie Kirkland - Young Man Young Woman Blues
TTITLE14=Buster Benton - That's Your Thing
TTITLE15=Jimmy Dawkins - All for Business
EXTD=LABEL =Evidence Music Inc.\nID =ecd26040-2\nUPC =730182-604023
EXTD=\nCOPYRIGHT =1993
EXTT0=
EXTT1=
EXTT2=
EXTT3=
EXTT4=
EXTT5=
EXTT6=
EXTT7=
EXTT8=
EXTT9=
EXTT10=
EXTT11=
EXTT12=
EXTT13=
EXTT14=
EXTT15=
PLAYORDER=
